<svg version="1.1" viewBox="0 0 100 40" xmlns="http://www.w3.org/2000/svg">
<defs>
<symbol id="highdata-logo" >
<title>highdata-logo</title>
<path fill="#F4F4F4" d="M8.349 12.713c0-.884-.217-1.56-.651-2.028-.435-.468-1.084-.717-1.948-.747a2.566 2.566 0 0 0-1.903 1.126v9.03H0V0h3.847v7.823a5.88 5.88 0 0 1 1.56-.896 4.585 4.585 0 0 1 1.538-.275c1.7 0 3 .518 3.9 1.553a5.251 5.251 0 0 1 1.34 3.552v8.337H8.348v-7.381Zm6.995-7.833a1.885 1.885 0 0 1-.528-1.37 1.912 1.912 0 0 1 .513-1.374 1.81 1.81 0 0 1 1.374-.544 1.855 1.855 0 0 1 1.395.544 2.09 2.09 0 0 1 0 2.754 2.037 2.037 0 0 1-2.76 0l.006-.01Zm-.409 1.772h3.498v13.442h-3.498V6.652ZM30.447 25.12a7.169 7.169 0 0 1-2.36.598l-.803.08a10.367 10.367 0 0 1-3.313-.57 8.763 8.763 0 0 1-2.775-1.675l1.81-2.091c.583.396 1.218.71 1.888.932a6.425 6.425 0 0 0 1.941.298 4.203 4.203 0 0 0 1.563-.26c.393-.145.739-.397.997-.728a3.48 3.48 0 0 0 .75-2.145v-.597a6.738 6.738 0 0 1-1.715.91 5.377 5.377 0 0 1-1.687.267c-2.037 0-3.579-.608-4.624-1.823-1.046-1.214-1.558-2.848-1.538-4.901 0-1.966.557-3.574 1.672-4.824C23.37 7.34 24.88 6.71 26.785 6.7a5.579 5.579 0 0 1 1.813.269 4.624 4.624 0 0 1 1.547.938v-1.22l3.832.416v11.91c0 1.893-.558 3.465-1.675 4.716a5.535 5.535 0 0 1-1.855 1.392ZM27.39 9.888c-1.1.046-1.937.339-2.512.878-.577.54-.911 1.332-.998 2.39.045 1.23.359 2.163.944 2.787.586.624 1.44.965 2.566 1.018a3.883 3.883 0 0 0 1.93-.776c.454-.401.744-.955.815-1.557v-2.156c-.191-1.458-1.087-2.318-2.745-2.584Zm17.386 2.825c0-.884-.217-1.56-.649-2.028-.432-.468-1.077-.717-1.935-.747a2.572 2.572 0 0 0-1.903 1.126v9.03h-3.86V0h3.845v7.823a5.88 5.88 0 0 1 1.562-.896 4.573 4.573 0 0 1 1.55-.275c1.697 0 2.996.518 3.899 1.553a5.254 5.254 0 0 1 1.34 3.552v8.337h-3.85v-7.381Zm22.994 6.338a8.135 8.135 0 0 1-1.563.804c-.42.155-.865.236-1.314.239-2.055 0-3.685-.675-4.89-2.026a6.87 6.87 0 0 1-1.81-4.701 6.79 6.79 0 0 1 1.81-4.69 5.974 5.974 0 0 1 4.684-2.025 5.126 5.126 0 0 1 1.643.242c.528.19 1.016.477 1.44.845V0h3.832v20.094H67.77V19.05Zm-2.733-9.206c-2.1.187-3.274 1.278-3.525 3.271.046 1.225.36 2.149.944 2.772.583.623 1.438.963 2.566 1.019 1.646-.247 2.562-1.029 2.748-2.345V12.42c-.18-1.456-1.09-2.314-2.733-2.575Zm18.483 10.21.054-.95a4.27 4.27 0 0 1-1.305.75 5.12 5.12 0 0 1-1.494.254c-.134 0-.334.015-.597.015h-.648a5.74 5.74 0 0 1-2.39-.49 3.987 3.987 0 0 1-1.709-1.44 4.068 4.068 0 0 1-.62-2.282v-.054a4.099 4.099 0 0 1 .704-2.446 4.203 4.203 0 0 1 1.957-1.473 7.952 7.952 0 0 1 2.9-.49 8.665 8.665 0 0 1 1.58.135c.567.11 1.126.254 1.676.43v-.15a2.29 2.29 0 0 0-.717-1.828c-.478-.414-1.195-.622-2.15-.624a9.347 9.347 0 0 0-1.793.161c-.674.144-1.337.337-1.983.577l-.992-3.029a16.75 16.75 0 0 1 2.626-.857 12.636 12.636 0 0 1 2.72-.266c2.062 0 3.606.513 4.634 1.538 1.027 1.026 1.525 2.491 1.493 4.397l-.066 8.13-3.88-.008Zm-2.237-6.19a3.354 3.354 0 0 0-1.93.476 1.55 1.55 0 0 0-.684 1.347v.054a1.407 1.407 0 0 0 .556 1.18c.435.306.962.457 1.493.427a3.939 3.939 0 0 0 1.575-.3 2.389 2.389 0 0 0 1.039-.823c.238-.358.36-.78.35-1.21v-.645a6.365 6.365 0 0 0-2.4-.505Zm11.841 4.959a4.3 4.3 0 0 1-1.348-3.31V9.807h-1.983V6.685h1.983V3.068l3.83-.416v4.021h1.983v3.121H95.6v5.186c0 1.253.51 1.878 1.53 1.876a9.549 9.549 0 0 0 1.03-.215l.82 2.787a5.506 5.506 0 0 1-1.166.51 4.1 4.1 0 0 1-1.087.147c-1.508.006-2.708-.414-3.602-1.26Zm16.742 1.231.051-.95c-.388.325-.83.58-1.306.75a5.111 5.111 0 0 1-1.493.254c-.135 0-.335.015-.598.015h-.618a5.717 5.717 0 0 1-2.39-.49 3.95 3.95 0 0 1-1.708-1.44 4.038 4.038 0 0 1-.648-2.282v-.054a4.095 4.095 0 0 1 .705-2.446 4.206 4.206 0 0 1 1.953-1.473 7.975 7.975 0 0 1 2.897-.508 8.685 8.685 0 0 1 1.581.135c.565.11 1.124.254 1.672.43v-.15a2.289 2.289 0 0 0-.714-1.828c-.477-.414-1.194-.622-2.15-.624a9.35 9.35 0 0 0-1.81.161c-.674.145-1.337.337-1.984.577l-.991-3.029c.85-.357 1.728-.644 2.625-.857a12.653 12.653 0 0 1 2.721-.266c2.065 0 3.611.513 4.636 1.538 1.026 1.026 1.524 2.491 1.494 4.397l-.069 8.13-3.856.01Zm-2.237-6.19a3.342 3.342 0 0 0-1.93.476 1.545 1.545 0 0 0-.684 1.347v.054a1.4 1.4 0 0 0 .555 1.18c.436.307.962.457 1.494.427a3.955 3.955 0 0 0 1.574-.3 2.352 2.352 0 0 0 1.037-.823c.242-.358.369-.781.361-1.213v-.645a6.348 6.348 0 0 0-2.407-.502Zm9.412 6.847h13.719v2.07h-13.719v-2.07Z"/>
  <path stroke="#F4F4F4" stroke-width="14" d="M0 34h131"/>
</symbol>
</defs>
</svg>
