
<svg xmlns="http://www.w3.org/2000/svg">
  <defs>
    <symbol id="briefcase" viewBox="0 0 50 50" fill="none" stroke-width="1.5" stroke="#8febe8" class="w-6 h-6" width='120' height='120'>
      <title>Briefcase</title>
      <path stroke-linecap="round" stroke-linejoin="round" d="M20.25 14.15v4.25c0 1.094-.787 2.036-1.872 2.18-2.087.277-4.216.42-6.378.42s-4.291-.143-6.378-.42c-1.085-.144-1.872-1.086-1.872-2.18v-4.25m16.5 0a2.18 2.18 0 00.75-1.661V8.706c0-1.081-.768-2.015-1.837-2.175a48.114 48.114 0 00-3.413-.387m4.5 8.006c-.194.165-.42.295-.673.38A23.978 23.978 0 0112 15.75c-2.648 0-5.195-.429-7.577-1.22a2.016 2.016 0 01-.673-.38m0 0A2.18 2.18 0 013 12.489V8.706c0-1.081.768-2.015 1.837-2.175a48.111 48.111 0 013.413-.387m7.5 0V5.25A2.25 2.25 0 0013.5 3h-3a2.25 2.25 0 00-2.25 2.25v.894m7.5 0a48.667 48.667 0 00-7.5 0M12 12.75h.008v.008H12v-.008z" />
    </symbol>

    <symbol id="rocket" viewBox="0 0 50 50" fill="none" stroke-width="1.5" stroke="#8febe8" class="w-6 h-6" width='120' height='120'>
      <title>Rocket</title>
      <path stroke-linecap="round" stroke-linejoin="round" d="M15.59 14.37a6 6 0 01-5.84 7.38v-4.8m5.84-2.58a14.98 14.98 0 006.16-12.12A14.98 14.98 0 009.631 8.41m5.96 5.96a14.926 14.926 0 01-5.841 2.58m-.119-8.54a6 6 0 00-7.381 5.84h4.8m2.581-5.84a14.927 14.927 0 00-2.58 5.84m2.699 2.7c-.103.021-.207.041-.311.06a15.09 15.09 0 01-2.448-2.448 14.9 14.9 0 01.06-.312m-2.24 2.39a4.493 4.493 0 00-1.757 4.306 4.493 4.493 0 004.306-1.758M16.5 9a1.5 1.5 0 11-3 0 1.5 1.5 0 013 0z" />
    </symbol>

    <symbol id="cap" fill="none" viewBox="0 0 50 50" stroke-width="1.5" stroke="#8febe8" class="w-6 h-6" width='120' height='120'>
      <title>Cap</title>
      <path stroke-linecap="round" stroke-linejoin="round" d="M4.26 10.147a60.436 60.436 0 00-.491 6.347A48.627 48.627 0 0112 20.904a48.627 48.627 0 018.232-4.41 60.46 60.46 0 00-.491-6.347m-15.482 0a50.57 50.57 0 00-2.658-.813A59.905 59.905 0 0112 3.493a59.902 59.902 0 0110.399 5.84c-.896.248-1.783.52-2.658.814m-15.482 0A50.697 50.697 0 0112 13.489a50.702 50.702 0 017.74-3.342M6.75 15a.75.75 0 100-1.5.75.75 0 000 1.5zm0 0v-3.675A55.378 55.378 0 0112 8.443m-7.007 11.55A5.981 5.981 0 006.75 15.75v-1.5" />
    </symbol>

    <symbol id="facebook" viewBox="0 0 50 50" width="100" height="100">
    <title>Logo Facebook</title>
    <path fill="currentColor" d="M22 12c0-5.52-4.48-10-10-10S2 6.48 2 12c0 4.84 3.44 8.87 8 9.8V15H8v-3h2V9.5C10 7.57 11.57 6 13.5 6H16v3h-2c-.55 0-1 .45-1 1v2h3v3h-3v6.95c5.05-.5 9-4.76 9-9.95z"/>
    </symbol>

    <symbol id="instagram"  viewBox="0 0 50 50" width="100" height="100">
    <title>Logo Instagram</title>
    <path fill="currentColor" d="M12 9a3 3 0 1 0 0 6a3 3 0 0 0 0-6zm0-2a5 5 0 1 1 0 10a5 5 0 0 1 0-10zm6.5-.25a1.25 1.25 0 0 1-2.5 0a1.25 1.25 0 0 1 2.5 0zM12 4c-2.474 0-2.878.007-4.029.058c-.784.037-1.31.142-1.798.332a2.886 2.886 0 0 0-1.08.703a2.89 2.89 0 0 0-.704 1.08c-.19.49-.295 1.015-.331 1.798C4.006 9.075 4 9.461 4 12c0 2.474.007 2.878.058 4.029c.037.783.142 1.31.331 1.797c.17.435.37.748.702 1.08c.337.336.65.537 1.08.703c.494.191 1.02.297 1.8.333C9.075 19.994 9.461 20 12 20c2.474 0 2.878-.007 4.029-.058c.782-.037 1.309-.142 1.797-.331a2.92 2.92 0 0 0 1.08-.702c.337-.337.538-.65.704-1.08c.19-.493.296-1.02.332-1.8c.052-1.104.058-1.49.058-4.029c0-2.474-.007-2.878-.058-4.029c-.037-.782-.142-1.31-.332-1.798a2.911 2.911 0 0 0-.703-1.08a2.884 2.884 0 0 0-1.08-.704c-.49-.19-1.016-.295-1.798-.331C14.925 4.006 14.539 4 12 4zm0-2c2.717 0 3.056.01 4.122.06c1.065.05 1.79.217 2.428.465c.66.254 1.216.598 1.772 1.153a4.908 4.908 0 0 1 1.153 1.772c.247.637.415 1.363.465 2.428c.047 1.066.06 1.405.06 4.122c0 2.717-.01 3.056-.06 4.122c-.05 1.065-.218 1.79-.465 2.428a4.883 4.883 0 0 1-1.153 1.772a4.915 4.915 0 0 1-1.772 1.153c-.637.247-1.363.415-2.428.465c-1.066.047-1.405.06-4.122.06c-2.717 0-3.056-.01-4.122-.06c-1.065-.05-1.79-.218-2.428-.465a4.89 4.89 0 0 1-1.772-1.153a4.904 4.904 0 0 1-1.153-1.772c-.248-.637-.415-1.363-.465-2.428C2.013 15.056 2 14.717 2 12c0-2.717.01-3.056.06-4.122c.05-1.066.217-1.79.465-2.428a4.88 4.88 0 0 1 1.153-1.772A4.897 4.897 0 0 1 5.45 2.525c.638-.248 1.362-.415 2.428-.465C8.944 2.013 9.283 2 12 2z"/>
    </symbol>

    <symbol id="whatsapp"  viewBox="0 0 50 50" width="100" height="100">
    <title>Logo Whatsapp</title>
    <path fill="currentColor" d="M19.05 4.91A9.816 9.816 0 0 0 12.04 2c-5.46 0-9.91 4.45-9.91 9.91c0 1.75.46 3.45 1.32 4.95L2.05 22l5.25-1.38c1.45.79 3.08 1.21 4.74 1.21c5.46 0 9.91-4.45 9.91-9.91c0-2.65-1.03-5.14-2.9-7.01zm-7.01 15.24c-1.48 0-2.93-.4-4.2-1.15l-.3-.18l-3.12.82l.83-3.04l-.2-.31a8.264 8.264 0 0 1-1.26-4.38c0-4.54 3.7-8.24 8.24-8.24c2.2 0 4.27.86 5.82 2.42a8.183 8.183 0 0 1 2.41 5.83c.02 4.54-3.68 8.23-8.22 8.23zm4.52-6.16c-.25-.12-1.47-.72-1.69-.81c-.23-.08-.39-.12-.56.12c-.17.25-.64.81-.78.97c-.14.17-.29.19-.54.06c-.25-.12-1.05-.39-1.99-1.23c-.74-.66-1.23-1.47-1.38-1.72c-.14-.25-.02-.38.11-.51c.11-.11.25-.29.37-.43s.17-.25.25-.41c.08-.17.04-.31-.02-.43s-.56-1.34-.76-1.84c-.2-.48-.41-.42-.56-.43h-.48c-.17 0-.43.06-.66.31c-.22.25-.86.85-.86 2.07c0 1.22.89 2.4 1.01 2.56c.12.17 1.75 2.67 4.23 3.74c.59.26 1.05.41 1.41.52c.59.19 1.13.16 1.56.1c.48-.07 1.47-.6 1.67-1.18c.21-.58.21-1.07.14-1.18s-.22-.16-.47-.28z"/>
    </symbol>
  </defs>
</svg>